<svg xmlns="http://www.w3.org/2000/svg" xmlns:xlink="http://www.w3.org/1999/xlink" xmlns:lucid="lucid" width="2404.5" height="1084.5"><g transform="translate(1064 180.5)" lucid:page-tab-id="0_0"><path d="M-1500-500h3000v1500h-3000z" fill="#fff"/><path d="M-905 390c24.85 0 45 20.15 45 45s-20.15 45-45 45h-90c-24.85 0-45-20.15-45-45s20.15-45 45-45z" stroke="#000" stroke-opacity="0" fill="#ffcc3d"/><use xlink:href="#a" transform="matrix(1,0,0,1,-1035,395) translate(14.768518518518547 46.66666666666666)"/><use xlink:href="#b" transform="matrix(1,0,0,1,-1035,395) translate(96.1574074074074 46.66666666666666)"/><path d="M986.92-160c27.7 0 50.16 22.46 50.16 50.16 0 27.7-22.46 50.16-50.16 50.16H908.9c-27.7 0-50.16-22.46-50.16-50.16 0-27.7 22.45-50.16 50.15-50.16z" stroke="#000" stroke-opacity="0" fill="#ffcc3d"/><use xlink:href="#c" transform="matrix(1,0,0,1,863.7348899089288,-155) translate(9.597592592592628 38.04166666666666)"/><use xlink:href="#d" transform="matrix(1,0,0,1,863.7348899089288,-155) translate(103.85685185185184 38.04166666666666)"/><use xlink:href="#e" transform="matrix(1,0,0,1,863.7348899089288,-155) translate(40.579074074074086 78.04166666666664)"/><path d="M-858.5 435h12.5a6 6 0 0 0 6-6v-88.38" stroke="#3a414a" stroke-width="3" fill="none"/><path d="M-858.46 436.5h-1.62l.08-1.5v-.7l-.06-.8h1.6z" stroke="#3a414a" stroke-width=".05" fill="#3a414a"/><path d="M-824.85 340.15l-14.12 5.08-.28-9.27z" stroke="#3a414a" stroke-width="3" fill="#3a414a"/><path d="M-820 286a6 6 0 0 1 6-6h148a6 6 0 0 1 6 6v108a6 6 0 0 1-6 6h-148a6 6 0 0 1-6-6z" stroke="#000" stroke-opacity="0" fill="#95caa6"/><use xlink:href="#f" transform="matrix(1,0,0,1,-808,292) translate(31.935185185185198 34.66666666666667)"/><use xlink:href="#g" transform="matrix(1,0,0,1,-808,292) translate(-7.879629629629591 74.66666666666666)"/><path d="M-858.5 435h12.25a6 6 0 0 1 6 6v98.13" stroke="#3a414a" stroke-width="3" fill="none"/><path d="M-858.46 436.5h-1.62l.08-1.5v-.7l-.06-.8h1.6z" stroke="#3a414a" stroke-width=".05" fill="#3a414a"/><path d="M-825.35 539.8l-14.46 4 .4-9.27z" stroke="#3a414a" stroke-width="3" fill="#3a414a"/><path d="M-820.5 474a6 6 0 0 1 6-6h148a6 6 0 0 1 6 6v132a6 6 0 0 1-6 6h-148a6 6 0 0 1-6-6z" stroke="#000" stroke-opacity="0" fill="#95caa6"/><use xlink:href="#h" transform="matrix(1,0,0,1,-808.5003118598444,480) translate(17.212962962962983 26.66666666666668)"/><use xlink:href="#i" transform="matrix(1,0,0,1,-808.5003118598444,480) translate(38.41666666666667 66.66666666666666)"/><use xlink:href="#j" transform="matrix(1,0,0,1,-808.5003118598444,480) translate(-10.564814814814781 106.66666666666666)"/><path d="M-658.5 340h77.38" stroke="#3a414a" stroke-width="3" fill="none"/><path d="M-658.46 341.5H-660v-3h1.54z" stroke="#3a414a" stroke-width=".05" fill="#3a414a"/><path d="M-565.35 340l-14.27 4.63v-9.26z" stroke="#3a414a" stroke-width="3" fill="#3a414a"/><path d="M-560.5 274a6 6 0 0 1 6-6h148a6 6 0 0 1 6 6v132a6 6 0 0 1-6 6h-148a6 6 0 0 1-6-6z" stroke="#000" stroke-opacity="0" fill="#95caa6"/><use xlink:href="#k" transform="matrix(1,0,0,1,-548.5003118598444,280) translate(9.75925925925928 30.416666666666657)"/><use xlink:href="#l" transform="matrix(1,0,0,1,-548.5003118598444,280) translate(54.111111111111114 70.41666666666664)"/><use xlink:href="#m" transform="matrix(1,0,0,1,-548.5003118598444,280) translate(13.462962962962976 110.41666666666663)"/><path d="M-399 340h32.25a6 6 0 0 0 6-6V26a6 6 0 0 1 6-6h13.13" stroke="#3a414a" stroke-width="3" fill="none"/><path d="M-398.96 341.5h-1.54v-3h1.54z" stroke="#3a414a" stroke-width=".05" fill="#3a414a"/><path d="M-325.85 20l-14.27 4.64v-9.28z" stroke="#3a414a" stroke-width="3" fill="#3a414a"/><path d="M-321-34a6 6 0 0 1 6-6h148a6 6 0 0 1 6 6V74a6 6 0 0 1-6 6h-148a6 6 0 0 1-6-6z" stroke="#000" stroke-opacity="0" fill="#95caa6"/><use xlink:href="#n" transform="matrix(1,0,0,1,-309.0002618598446,-28) translate(6.148148148148167 53.66666666666666)"/><path d="M-159.5 20h18.88" stroke="#3a414a" stroke-width="3" fill="none"/><path d="M-159.46 21.5H-161v-3h1.54z" stroke="#3a414a" stroke-width=".05" fill="#3a414a"/><path d="M-124.85 20l-14.27 4.64v-9.28z" stroke="#3a414a" stroke-width="3" fill="#3a414a"/><path d="M-120-46a6 6 0 0 1 6-6H34a6 6 0 0 1 6 6V86a6 6 0 0 1-6 6h-148a6 6 0 0 1-6-6z" stroke="#000" stroke-opacity="0" fill="#95caa6"/><use xlink:href="#o" transform="matrix(1,0,0,1,-108,-39.99999999999997) translate(-1.398148148148124 26.66666666666668)"/><use xlink:href="#p" transform="matrix(1,0,0,1,-108,-39.99999999999997) translate(18.046296296296326 66.66666666666666)"/><use xlink:href="#q" transform="matrix(1,0,0,1,-108,-39.99999999999997) translate(-10.611111111111072 106.66666666666666)"/><path d="M260 186a6 6 0 0 1 6-6h148a6 6 0 0 1 6 6v108a6 6 0 0 1-6 6H266a6 6 0 0 1-6-6z" stroke="#000" stroke-opacity="0" fill="#95caa6"/><use xlink:href="#r" transform="matrix(1,0,0,1,272,192) translate(-5.935185185185148 54.666666666666664)"/><path d="M260 386a6 6 0 0 1 6-6h148a6 6 0 0 1 6 6v108a6 6 0 0 1-6 6H266a6 6 0 0 1-6-6z" stroke="#000" stroke-opacity="0" fill="#95caa6"/><use xlink:href="#s" transform="matrix(1,0,0,1,272,392) translate(24.898148148148167 53.66666666666666)"/><path d="M-399 340H14a6 6 0 0 0 6-6v-88a6 6 0 0 1 6-6h213.38" stroke="#3a414a" stroke-width="3" fill="none"/><path d="M-398.96 341.5h-1.54v-3h1.54z" stroke="#3a414a" stroke-width=".05" fill="#3a414a"/><path d="M255.15 240l-14.27 4.63v-9.26z" stroke="#3a414a" stroke-width="3" fill="#3a414a"/><path d="M-399 340H14a6 6 0 0 1 6 6v88a6 6 0 0 0 6 6h213.38" stroke="#3a414a" stroke-width="3" fill="none"/><path d="M-398.96 341.5h-1.54v-3h1.54z" stroke="#3a414a" stroke-width=".05" fill="#3a414a"/><path d="M255.15 440l-14.27 4.63v-9.26z" stroke="#3a414a" stroke-width="3" fill="#3a414a"/><path d="M-40 93.5V318h-.03v1.38" stroke="#3a414a" stroke-width="3" fill="none"/><path d="M-38.5 93.54h-3V92h3z" stroke="#3a414a" stroke-width=".05" fill="#3a414a"/><path d="M-40.03 335.15l-4.63-14.27h9.27z" stroke="#3a414a" stroke-width="3" fill="#3a414a"/><path d="M540 274a6 6 0 0 1 6-6h148a6 6 0 0 1 6 6v132a6 6 0 0 1-6 6H546a6 6 0 0 1-6-6z" stroke="#000" stroke-opacity="0" fill="#95caa6"/><use xlink:href="#t" transform="matrix(1,0,0,1,552,280) translate(31.14814814814816 30.416666666666657)"/><use xlink:href="#u" transform="matrix(1,0,0,1,552,280) translate(36.564814814814824 70.41666666666664)"/><use xlink:href="#v" transform="matrix(1,0,0,1,552,280) translate(23.60185185185187 110.41666666666663)"/><path d="M1100 26a6 6 0 0 1 6-6h148a6 6 0 0 1 6 6v108a6 6 0 0 1-6 6h-148a6 6 0 0 1-6-6z" stroke="#000" stroke-opacity="0" fill="#95caa6"/><use xlink:href="#w" transform="matrix(1,0,0,1,1112,32) translate(3.370370370370395 34.66666666666667)"/><use xlink:href="#u" transform="matrix(1,0,0,1,1112,32) translate(69.75925925925925 34.66666666666667)"/><use xlink:href="#x" transform="matrix(1,0,0,1,1112,32) translate(-4.129629629629605 74.66666666666666)"/><path d="M863.94 14a6 6 0 0 1 6-6h148a6 6 0 0 1 6 6v132a6 6 0 0 1-6 6h-148a6 6 0 0 1-6-6z" stroke="#000" stroke-opacity="0" fill="#95caa6"/><use xlink:href="#y" transform="matrix(1,0,0,1,875.9388132318563,20.00000000000003) translate(-1.3055555555555287 26.66666666666668)"/><use xlink:href="#z" transform="matrix(1,0,0,1,875.9388132318563,20.00000000000003) translate(5.222222222222243 66.66666666666666)"/><use xlink:href="#A" transform="matrix(1,0,0,1,875.9388132318563,20.00000000000003) translate(82.81481481481481 66.66666666666666)"/><use xlink:href="#B" transform="matrix(1,0,0,1,875.9388132318563,20.00000000000003) translate(8.740740740740762 106.66666666666666)"/><use xlink:href="#C" transform="matrix(1,0,0,1,875.9388132318563,20.00000000000003) translate(73.55555555555556 106.66666666666666)"/><path d="M480 586a6 6 0 0 1 6-6h268a6 6 0 0 1 6 6v168a6 6 0 0 1-6 6H486a6 6 0 0 1-6-6z" stroke="#000" stroke-opacity="0" fill="#95caa6"/><use xlink:href="#D" transform="matrix(1,0,0,1,492,592) translate(19.89814814814818 46.16666666666666)"/><use xlink:href="#E" transform="matrix(1,0,0,1,492,592) translate(167.7685185185185 46.16666666666666)"/><use xlink:href="#F" transform="matrix(1,0,0,1,492,592) translate(18.000000000000043 86.16666666666664)"/><use xlink:href="#B" transform="matrix(1,0,0,1,492,592) translate(90.22222222222223 86.16666666666664)"/><use xlink:href="#G" transform="matrix(1,0,0,1,492,592) translate(155.037037037037 86.16666666666664)"/><use xlink:href="#H" transform="matrix(1,0,0,1,492,592) translate(47.53703703703708 126.16666666666663)"/><path d="M260 554a6 6 0 0 1 6-6h148a6 6 0 0 1 6 6v132a6 6 0 0 1-6 6H266a6 6 0 0 1-6-6z" stroke="#000" stroke-opacity="0" fill="#95caa6"/><use xlink:href="#I" transform="matrix(1,0,0,1,272,560) translate(6.009259259259288 30.416666666666657)"/><use xlink:href="#J" transform="matrix(1,0,0,1,272,560) translate(25.500000000000014 70.41666666666664)"/><use xlink:href="#K" transform="matrix(1,0,0,1,272,560) translate(2.3518518518518903 110.41666666666663)"/><path d="M1080 418a6 6 0 0 1 6-6h228a6 6 0 0 1 6 6v172a6 6 0 0 1-6 6h-228a6 6 0 0 1-6-6z" stroke="#000" stroke-opacity="0" fill="#95caa6"/><use xlink:href="#y" transform="matrix(1,0,0,1,1092,423.99999999999994) translate(38.69444444444447 31.666666666666657)"/><use xlink:href="#E" transform="matrix(1,0,0,1,1092,423.99999999999994) translate(73.83333333333334 71.66666666666664)"/><use xlink:href="#L" transform="matrix(1,0,0,1,1092,423.99999999999994) translate(0.824074074074133 111.66666666666663)"/><use xlink:href="#M" transform="matrix(1,0,0,1,1092,423.99999999999994) translate(30.361111111111143 151.66666666666663)"/><path d="M421.5 240H474a6 6 0 0 1 6 6v88a6 6 0 0 0 6 6h33.38" stroke="#3a414a" stroke-width="3" fill="none"/><path d="M421.54 241.5H420v-3h1.54z" stroke="#3a414a" stroke-width=".05" fill="#3a414a"/><path d="M535.15 340l-14.27 4.63v-9.26z" stroke="#3a414a" stroke-width="3" fill="#3a414a"/><path d="M421.5 440H474a6 6 0 0 0 6-6v-88a6 6 0 0 1 6-6h33.38" stroke="#3a414a" stroke-width="3" fill="none"/><path d="M421.54 441.5H420v-3h1.54z" stroke="#3a414a" stroke-width=".05" fill="#3a414a"/><path d="M535.15 340l-14.27 4.63v-9.26z" stroke="#3a414a" stroke-width="3" fill="#3a414a"/><path d="M-580 126a6 6 0 0 1 6-6h228a6 6 0 0 1 6 6v78a6 6 0 0 1-6 6h-228a6 6 0 0 1-6-6z" stroke="#000" stroke-opacity="0" fill="#fff" fill-opacity="0"/><use xlink:href="#N" transform="matrix(1,0,0,1,-575,125) translate(22.9166666666667 28.1111111111111)"/><use xlink:href="#O" transform="matrix(1,0,0,1,-575,125) translate(96.66358024691358 28.1111111111111)"/><use xlink:href="#P" transform="matrix(1,0,0,1,-575,125) translate(61.31481481481483 62.77777777777775)"/><path d="M20 166a6 6 0 0 1 6-6h228a6 6 0 0 1 6 6v78a6 6 0 0 1-6 6H26a6 6 0 0 1-6-6z" stroke="#000" stroke-opacity="0" fill="#fff" fill-opacity="0"/><use xlink:href="#Q" transform="matrix(1,0,0,1,25,165) translate(20.14814814814818 28.1111111111111)"/><use xlink:href="#R" transform="matrix(1,0,0,1,25,165) translate(87.9567901234568 28.1111111111111)"/><use xlink:href="#S" transform="matrix(1,0,0,1,25,165) translate(144.12962962962962 28.1111111111111)"/><use xlink:href="#P" transform="matrix(1,0,0,1,25,165) translate(61.31481481481483 62.77777777777775)"/><path d="M20 439.33a6 6 0 0 1 6-6h228a6 6 0 0 1 6 6v51.34a6 6 0 0 1-6 6H26a6 6 0 0 1-6-6z" stroke="#000" stroke-opacity="0" fill="#fff" fill-opacity="0"/><use xlink:href="#T" transform="matrix(1,0,0,1,25,438.33333333333337) translate(23.39814814814818 33.2361111111111)"/><use xlink:href="#U" transform="matrix(1,0,0,1,25,438.33333333333337) translate(99.23148148148148 33.2361111111111)"/><path d="M701.5 301.8h238.38a.12.12 0 0 0 .12-.13.12.12 0 0 1 .12-.12H1174a6 6 0 0 0 6-6V160.62" stroke="#3a414a" stroke-width="3" fill="none"/><path d="M701.54 303.3H700v-3h1.54z" stroke="#3a414a" stroke-width=".05" fill="#3a414a"/><path d="M1180 144.85l4.63 14.27h-9.27z" stroke="#3a414a" stroke-width="3" fill="#3a414a"/><path d="M701.5 301.8h236.44a6 6 0 0 0 6-6V172.6" stroke="#3a414a" stroke-width="3" fill="none"/><path d="M701.54 303.3H700v-3h1.54z" stroke="#3a414a" stroke-width=".05" fill="#3a414a"/><path d="M943.94 156.85l4.63 14.27h-9.27z" stroke="#3a414a" stroke-width="3" fill="#3a414a"/><path d="M700 186a6 6 0 0 1 6-6h228a6 6 0 0 1 6 6v118a6 6 0 0 1-6 6H706a6 6 0 0 1-6-6z" stroke="#000" stroke-opacity="0" stroke-width="3" fill="#fff" fill-opacity="0"/><g><use xlink:href="#V" transform="matrix(1,0,0,1,705,185) translate(38.36419753086423 30.6111111111111)"/><use xlink:href="#W" transform="matrix(1,0,0,1,705,185) translate(143.48765432098764 30.6111111111111)"/><use xlink:href="#X" transform="matrix(1,0,0,1,705,185) translate(22.9166666666667 65.27777777777774)"/><use xlink:href="#S" transform="matrix(1,0,0,1,705,185) translate(141.3611111111111 65.27777777777774)"/><use xlink:href="#P" transform="matrix(1,0,0,1,705,185) translate(61.31481481481483 99.9444444444444)"/></g><path d="M837.1 366a6 6 0 0 1 6-6h228a6 6 0 0 1 6 6v148a6 6 0 0 1-6 6h-228a6 6 0 0 1-6-6z" stroke="#000" stroke-opacity="0" fill="#fff" fill-opacity="0"/><g><use xlink:href="#V" transform="matrix(1,0,0,1,842.1084097406981,365) translate(38.36419753086423 46.5486111111111)"/><use xlink:href="#W" transform="matrix(1,0,0,1,842.1084097406981,365) translate(143.48765432098764 46.5486111111111)"/><use xlink:href="#Y" transform="matrix(1,0,0,1,842.1084097406981,365) translate(11.641975308642003 81.21527777777774)"/><use xlink:href="#Z" transform="matrix(1,0,0,1,842.1084097406981,365) translate(130.32716049382714 81.21527777777774)"/><use xlink:href="#aa" transform="matrix(1,0,0,1,842.1084097406981,365) translate(27.410493827160522 115.8819444444444)"/><use xlink:href="#P" transform="matrix(1,0,0,1,842.1084097406981,365) translate(95.21913580246914 115.8819444444444)"/></g><path d="M620 413.5v145.88" stroke="#3a414a" stroke-width="3" fill="none"/><path d="M621.5 413.54h-3V412h3z" stroke="#3a414a" stroke-width=".05" fill="#3a414a"/><path d="M620 575.15l-4.63-14.27h9.26z" stroke="#3a414a" stroke-width="3" fill="#3a414a"/><path d="M701.5 376.9H1194a6 6 0 0 1 6 6v8.48" stroke="#3a414a" stroke-width="3" fill="none"/><path d="M701.54 378.4H700v-3h1.54z" stroke="#3a414a" stroke-width=".05" fill="#3a414a"/><path d="M1200 407.15l-4.63-14.27h9.27z" stroke="#3a414a" stroke-width="3" fill="#3a414a"/><path d="M600 464a6 6 0 0 1 6-6h228a6 6 0 0 1 6 6v78a6 6 0 0 1-6 6H606a6 6 0 0 1-6-6z" stroke="#000" stroke-opacity="0" fill="#fff" fill-opacity="0"/><g><use xlink:href="#Q" transform="matrix(1,0,0,1,605,463) translate(27.410493827160522 45.6111111111111)"/><use xlink:href="#U" transform="matrix(1,0,0,1,605,463) translate(95.21913580246914 45.6111111111111)"/></g><path d="M947.9-58.68v48.18" stroke="#3a414a" stroke-width="2" fill="none"/><path d="M948.9-58.66h-2v-1.02h2z" stroke="#3a414a" stroke-width=".05" fill="#3a414a"/><path d="M947.9 4.76L943.27-9.5h9.27z" stroke="#3a414a" stroke-width="2" fill="#3a414a"/><path d="M-740.5 613.5V634a6 6 0 0 1-6 6H-1054a6 6 0 0 1-6-6V-58.18a6 6 0 0 1 6-6H836.44a6 6 0 0 1 6 6v137.3a.88.88 0 0 0 .88.88" stroke="#3a414a" stroke-width="3" fill="none"/><path d="M-739 613.54h-3V612h3z" stroke="#3a414a" stroke-width=".05" fill="#3a414a"/><path d="M859.1 80l-14.28 4.64v-9.28z" stroke="#3a414a" stroke-width="3" fill="#3a414a"/><path d="M-740.5 613.5V894a6 6 0 0 0 6 6H1194a6 6 0 0 0 6-6V616.62" stroke="#3a414a" stroke-width="3" fill="none"/><path d="M-739 613.54h-3V612h3z" stroke="#3a414a" stroke-width=".05" fill="#3a414a"/><path d="M1200 600.85l4.63 14.27h-9.27z" stroke="#3a414a" stroke-width="3" fill="#3a414a"/><path d="M160 580c22.1 0 40 17.9 40 40s-17.9 40-40 40H60c-22.1 0-40-17.9-40-40s17.9-40 40-40z" stroke="#000" stroke-opacity="0" fill="#ffcc3d"/><g><use xlink:href="#ab" transform="matrix(1,0,0,1,25,585) translate(42.50000000000002 41.97916666666666)"/></g><path d="M201 620h40.5" stroke="#3a414a" stroke-width="2" fill="none"/><path d="M201.03 621h-1.1l.07-1-.03-1h1.06z" stroke="#3a414a" stroke-width=".05" fill="#3a414a"/><path d="M256.76 620l-14.26 4.63v-9.26z" stroke="#3a414a" stroke-width="2" fill="#3a414a"/><path d="M340 501v28.5" stroke="#3a414a" stroke-width="2" fill="none"/><path d="M341 501.03h-2V500h2z" stroke="#3a414a" stroke-width=".05" fill="#3a414a"/><path d="M340 544.76l-4.63-14.26h9.26z" stroke="#3a414a" stroke-width="2" fill="#3a414a"/><defs><path fill="#3a414a" d="M160-131c35 5 61 23 61 61C221 17 115-2 30 0v-248c76 3 177-17 177 60 0 33-19 50-47 57zm-97-11c50-1 110 9 110-42 0-47-63-36-110-37v79zm0 115c55-2 124 14 124-45 0-56-70-42-124-44v89" id="ac"/><path fill="#3a414a" d="M205 0l-28-72H64L36 0H1l101-248h38L239 0h-34zm-38-99l-47-123c-12 45-31 82-46 123h93" id="ad"/><path fill="#3a414a" d="M240 0l2-218c-23 76-54 145-80 218h-23L58-218 59 0H30v-248h44l77 211c21-75 51-140 76-211h43V0h-30" id="ae"/><g id="a"><use transform="matrix(0.09259259259259256,0,0,0.09259259259259256,0,0)" xlink:href="#ac"/><use transform="matrix(0.09259259259259256,0,0,0.09259259259259256,22.222222222222214,0)" xlink:href="#ad"/><use transform="matrix(0.09259259259259256,0,0,0.09259259259259256,44.44444444444443,0)" xlink:href="#ae"/></g><path fill="#3a414a" d="M101-234c-31-9-42 10-38 44h38v23H63V0H32v-167H5v-23h27c-7-52 17-82 69-68v24" id="af"/><path fill="#3a414a" d="M24-231v-30h32v30H24zM24 0v-190h32V0H24" id="ag"/><path fill="#3a414a" d="M24 0v-261h32V0H24" id="ah"/><path fill="#3a414a" d="M100-194c63 0 86 42 84 106H49c0 40 14 67 53 68 26 1 43-12 49-29l28 8c-11 28-37 45-77 45C44 4 14-33 15-96c1-61 26-98 85-98zm52 81c6-60-76-77-97-28-3 7-6 17-6 28h103" id="ai"/><path fill="#3a414a" d="M135-143c-3-34-86-38-87 0 15 53 115 12 119 90S17 21 10-45l28-5c4 36 97 45 98 0-10-56-113-15-118-90-4-57 82-63 122-42 12 7 21 19 24 35" id="aj"/><g id="b"><use transform="matrix(0.09259259259259256,0,0,0.09259259259259256,0,0)" xlink:href="#af"/><use transform="matrix(0.09259259259259256,0,0,0.09259259259259256,9.259259259259256,0)" xlink:href="#ag"/><use transform="matrix(0.09259259259259256,0,0,0.09259259259259256,16.57407407407407,0)" xlink:href="#ah"/><use transform="matrix(0.09259259259259256,0,0,0.09259259259259256,23.88888888888888,0)" xlink:href="#ai"/><use transform="matrix(0.09259259259259256,0,0,0.09259259259259256,42.40740740740739,0)" xlink:href="#aj"/></g><path fill="#3a414a" d="M30-248c87 1 191-15 191 75 0 78-77 80-158 76V0H30v-248zm33 125c57 0 124 11 124-50 0-59-68-47-124-48v98" id="ak"/><path fill="#3a414a" d="M84 4C-5 8 30-112 23-190h32v120c0 31 7 50 39 49 72-2 45-101 50-169h31l1 190h-30c-1-10 1-25-2-33-11 22-28 36-60 37" id="al"/><path fill="#3a414a" d="M114-163C36-179 61-72 57 0H25l-1-190h30c1 12-1 29 2 39 6-27 23-49 58-41v29" id="am"/><path fill="#3a414a" d="M59-47c-2 24 18 29 38 22v24C64 9 27 4 27-40v-127H5v-23h24l9-43h21v43h35v23H59v120" id="an"/><path fill="#3a414a" d="M179-190L93 31C79 59 56 82 12 73V49c39 6 53-20 64-50L1-190h34L92-34l54-156h33" id="ao"/><g id="c"><use transform="matrix(0.09259259259259256,0,0,0.09259259259259256,0,0)" xlink:href="#ak"/><use transform="matrix(0.09259259259259256,0,0,0.09259259259259256,22.222222222222214,0)" xlink:href="#al"/><use transform="matrix(0.09259259259259256,0,0,0.09259259259259256,40.740740740740726,0)" xlink:href="#am"/><use transform="matrix(0.09259259259259256,0,0,0.09259259259259256,51.75925925925924,0)" xlink:href="#ag"/><use transform="matrix(0.09259259259259256,0,0,0.09259259259259256,59.07407407407404,0)" xlink:href="#an"/><use transform="matrix(0.09259259259259256,0,0,0.09259259259259256,68.3333333333333,0)" xlink:href="#ao"/></g><path fill="#3a414a" d="M141-36C126-15 110 5 73 4 37 3 15-17 15-53c-1-64 63-63 125-63 3-35-9-54-41-54-24 1-41 7-42 31l-33-3c5-37 33-52 76-52 45 0 72 20 72 64v82c-1 20 7 32 28 27v20c-31 9-61-2-59-35zM48-53c0 20 12 33 32 33 41-3 63-29 60-74-43 2-92-5-92 41" id="ap"/><path fill="#3a414a" d="M117-194c89-4 53 116 60 194h-32v-121c0-31-8-49-39-48C34-167 62-67 57 0H25l-1-190h30c1 10-1 24 2 32 11-22 29-35 61-36" id="aq"/><path fill="#3a414a" d="M85-194c31 0 48 13 60 33l-1-100h32l1 261h-30c-2-10 0-23-3-31C134-8 116 4 85 4 32 4 16-35 15-94c0-66 23-100 70-100zm9 24c-40 0-46 34-46 75 0 40 6 74 45 74 42 0 51-32 51-76 0-42-9-74-50-73" id="ar"/><g id="d"><use transform="matrix(0.09259259259259256,0,0,0.09259259259259256,0,0)" xlink:href="#ap"/><use transform="matrix(0.09259259259259256,0,0,0.09259259259259256,18.518518518518512,0)" xlink:href="#aq"/><use transform="matrix(0.09259259259259256,0,0,0.09259259259259256,37.037037037037024,0)" xlink:href="#ar"/></g><path fill="#3a414a" d="M115-194c55 1 70 41 70 98S169 2 115 4C84 4 66-9 55-30l1 105H24l-1-265h31l2 30c10-21 28-34 59-34zm-8 174c40 0 45-34 45-75s-6-73-45-74c-42 0-51 32-51 76 0 43 10 73 51 73" id="as"/><path fill="#3a414a" d="M100-194c62-1 85 37 85 99 1 63-27 99-86 99S16-35 15-95c0-66 28-99 85-99zM99-20c44 1 53-31 53-75 0-43-8-75-51-75s-53 32-53 75 10 74 51 75" id="at"/><g id="e"><use transform="matrix(0.09259259259259256,0,0,0.09259259259259256,0,0)" xlink:href="#as"/><use transform="matrix(0.09259259259259256,0,0,0.09259259259259256,18.518518518518512,0)" xlink:href="#ah"/><use transform="matrix(0.09259259259259256,0,0,0.09259259259259256,25.833333333333325,0)" xlink:href="#at"/><use transform="matrix(0.09259259259259256,0,0,0.09259259259259256,44.35185185185183,0)" xlink:href="#ag"/><use transform="matrix(0.09259259259259256,0,0,0.09259259259259256,51.666666666666636,0)" xlink:href="#ar"/><use transform="matrix(0.09259259259259256,0,0,0.09259259259259256,70.18518518518516,0)" xlink:href="#ao"/></g><g id="f"><use transform="matrix(0.09259259259259256,0,0,0.09259259259259256,0,0)" xlink:href="#ac"/><use transform="matrix(0.09259259259259256,0,0,0.09259259259259256,22.222222222222214,0)" xlink:href="#ad"/><use transform="matrix(0.09259259259259256,0,0,0.09259259259259256,44.44444444444443,0)" xlink:href="#ae"/></g><path fill="#3a414a" d="M115-194c53 0 69 39 70 98 0 66-23 100-70 100C84 3 66-7 56-30L54 0H23l1-261h32v101c10-23 28-34 59-34zm-8 174c40 0 45-34 45-75 0-40-5-75-45-74-42 0-51 32-51 76 0 43 10 73 51 73" id="au"/><path fill="#3a414a" d="M177-190C167-65 218 103 67 71c-23-6-38-20-44-43l32-5c15 47 100 32 89-28v-30C133-14 115 1 83 1 29 1 15-40 15-95c0-56 16-97 71-98 29-1 48 16 59 35 1-10 0-23 2-32h30zM94-22c36 0 50-32 50-73 0-42-14-75-50-75-39 0-46 34-46 75s6 73 46 73" id="av"/><g id="g"><use transform="matrix(0.09259259259259256,0,0,0.09259259259259256,0,0)" xlink:href="#aj"/><use transform="matrix(0.09259259259259256,0,0,0.09259259259259256,16.66666666666666,0)" xlink:href="#al"/><use transform="matrix(0.09259259259259256,0,0,0.09259259259259256,35.185185185185176,0)" xlink:href="#au"/><use transform="matrix(0.09259259259259256,0,0,0.09259259259259256,53.70370370370368,0)" xlink:href="#aj"/><use transform="matrix(0.09259259259259256,0,0,0.09259259259259256,70.37037037037035,0)" xlink:href="#ai"/><use transform="matrix(0.09259259259259256,0,0,0.09259259259259256,88.88888888888886,0)" xlink:href="#an"/><use transform="matrix(0.09259259259259256,0,0,0.09259259259259256,98.14814814814811,0)" xlink:href="#an"/><use transform="matrix(0.09259259259259256,0,0,0.09259259259259256,107.40740740740736,0)" xlink:href="#ag"/><use transform="matrix(0.09259259259259256,0,0,0.09259259259259256,114.72222222222219,0)" xlink:href="#aq"/><use transform="matrix(0.09259259259259256,0,0,0.09259259259259256,133.24074074074068,0)" xlink:href="#av"/></g><path fill="#3a414a" d="M30 0v-248h33v221h125V0H30" id="aw"/><g id="h"><use transform="matrix(0.09259259259259256,0,0,0.09259259259259256,0,0)" xlink:href="#aw"/><use transform="matrix(0.09259259259259256,0,0,0.09259259259259256,18.518518518518512,0)" xlink:href="#ag"/><use transform="matrix(0.09259259259259256,0,0,0.09259259259259256,25.833333333333325,0)" xlink:href="#au"/><use transform="matrix(0.09259259259259256,0,0,0.09259259259259256,44.35185185185183,0)" xlink:href="#am"/><use transform="matrix(0.09259259259259256,0,0,0.09259259259259256,55.37037037037035,0)" xlink:href="#ap"/><use transform="matrix(0.09259259259259256,0,0,0.09259259259259256,73.88888888888886,0)" xlink:href="#am"/><use transform="matrix(0.09259259259259256,0,0,0.09259259259259256,84.90740740740738,0)" xlink:href="#ao"/></g><path fill="#3a414a" d="M9 0v-24l116-142H16v-24h144v24L44-24h123V0H9" id="ax"/><g id="i"><use transform="matrix(0.09259259259259256,0,0,0.09259259259259256,0,0)" xlink:href="#aj"/><use transform="matrix(0.09259259259259256,0,0,0.09259259259259256,16.66666666666666,0)" xlink:href="#ag"/><use transform="matrix(0.09259259259259256,0,0,0.09259259259259256,23.981481481481474,0)" xlink:href="#ax"/><use transform="matrix(0.09259259259259256,0,0,0.09259259259259256,40.64814814814814,0)" xlink:href="#ai"/></g><path fill="#3a414a" d="M96-169c-40 0-48 33-48 73s9 75 48 75c24 0 41-14 43-38l32 2c-6 37-31 61-74 61-59 0-76-41-82-99-10-93 101-131 147-64 4 7 5 14 7 22l-32 3c-4-21-16-35-41-35" id="ay"/><g id="j"><use transform="matrix(0.09259259259259256,0,0,0.09259259259259256,0,0)" xlink:href="#ay"/><use transform="matrix(0.09259259259259256,0,0,0.09259259259259256,16.66666666666666,0)" xlink:href="#ap"/><use transform="matrix(0.09259259259259256,0,0,0.09259259259259256,35.185185185185176,0)" xlink:href="#ah"/><use transform="matrix(0.09259259259259256,0,0,0.09259259259259256,42.499999999999986,0)" xlink:href="#ay"/><use transform="matrix(0.09259259259259256,0,0,0.09259259259259256,59.16666666666664,0)" xlink:href="#al"/><use transform="matrix(0.09259259259259256,0,0,0.09259259259259256,77.68518518518516,0)" xlink:href="#ah"/><use transform="matrix(0.09259259259259256,0,0,0.09259259259259256,84.99999999999997,0)" xlink:href="#ap"/><use transform="matrix(0.09259259259259256,0,0,0.09259259259259256,103.51851851851848,0)" xlink:href="#an"/><use transform="matrix(0.09259259259259256,0,0,0.09259259259259256,112.77777777777774,0)" xlink:href="#ag"/><use transform="matrix(0.09259259259259256,0,0,0.09259259259259256,120.09259259259252,0)" xlink:href="#at"/><use transform="matrix(0.09259259259259256,0,0,0.09259259259259256,138.61111111111106,0)" xlink:href="#aq"/></g><path fill="#3a414a" d="M212-179c-10-28-35-45-73-45-59 0-87 40-87 99 0 60 29 101 89 101 43 0 62-24 78-52l27 14C228-24 195 4 139 4 59 4 22-46 18-125c-6-104 99-153 187-111 19 9 31 26 39 46" id="az"/><path fill="#3a414a" d="M108 0H70L1-190h34L89-25l56-165h34" id="aA"/><g id="k"><use transform="matrix(0.09259259259259256,0,0,0.09259259259259256,0,0)" xlink:href="#az"/><use transform="matrix(0.09259259259259256,0,0,0.09259259259259256,23.981481481481474,0)" xlink:href="#at"/><use transform="matrix(0.09259259259259256,0,0,0.09259259259259256,42.499999999999986,0)" xlink:href="#aq"/><use transform="matrix(0.09259259259259256,0,0,0.09259259259259256,61.0185185185185,0)" xlink:href="#aA"/><use transform="matrix(0.09259259259259256,0,0,0.09259259259259256,77.68518518518516,0)" xlink:href="#ai"/><use transform="matrix(0.09259259259259256,0,0,0.09259259259259256,96.20370370370367,0)" xlink:href="#am"/><use transform="matrix(0.09259259259259256,0,0,0.09259259259259256,107.22222222222219,0)" xlink:href="#an"/></g><g id="l"><use transform="matrix(0.09259259259259256,0,0,0.09259259259259256,0,0)" xlink:href="#an"/><use transform="matrix(0.09259259259259256,0,0,0.09259259259259256,9.259259259259256,0)" xlink:href="#at"/></g><path fill="#3a414a" d="M63-220v92h138v28H63V0H30v-248h175v28H63" id="aB"/><path fill="#3a414a" d="M185-189c-5-48-123-54-124 2 14 75 158 14 163 119 3 78-121 87-175 55-17-10-28-26-33-46l33-7c5 56 141 63 141-1 0-78-155-14-162-118-5-82 145-84 179-34 5 7 8 16 11 25" id="aC"/><path fill="#3a414a" d="M127-220V0H93v-220H8v-28h204v28h-85" id="aD"/><path fill="#3a414a" d="M140-251c81 0 123 46 123 126C263-53 228-8 163 1c7 30 30 48 69 40v23c-55 16-95-15-103-61C56-3 17-48 17-125c0-80 42-126 123-126zm0 227c63 0 89-41 89-101s-29-99-89-99c-61 0-89 39-89 99S79-25 140-24" id="aE"/><g id="m"><use transform="matrix(0.09259259259259256,0,0,0.09259259259259256,0,0)" xlink:href="#aB"/><use transform="matrix(0.09259259259259256,0,0,0.09259259259259256,18.42592592592592,0)" xlink:href="#ad"/><use transform="matrix(0.09259259259259256,0,0,0.09259259259259256,40.64814814814814,0)" xlink:href="#aC"/><use transform="matrix(0.09259259259259256,0,0,0.09259259259259256,62.870370370370345,0)" xlink:href="#aD"/><use transform="matrix(0.09259259259259256,0,0,0.09259259259259256,83.14814814814812,0)" xlink:href="#aE"/></g><path fill="#3a414a" d="M197 0v-115H63V0H30v-248h33v105h134v-105h34V0h-34" id="aF"/><path fill="#3a414a" d="M16-82v-28h88v28H16" id="aG"/><path fill="#3a414a" d="M30-248c118-7 216 8 213 122C240-48 200 0 122 0H30v-248zM63-27c89 8 146-16 146-99s-60-101-146-95v194" id="aH"/><g id="n"><use transform="matrix(0.09259259259259256,0,0,0.09259259259259256,0,0)" xlink:href="#aF"/><use transform="matrix(0.09259259259259256,0,0,0.09259259259259256,23.981481481481474,0)" xlink:href="#aw"/><use transform="matrix(0.09259259259259256,0,0,0.09259259259259256,42.499999999999986,0)" xlink:href="#ad"/><use transform="matrix(0.09259259259259256,0,0,0.09259259259259256,64.7222222222222,0)" xlink:href="#aG"/><use transform="matrix(0.09259259259259256,0,0,0.09259259259259256,75.74074074074072,0)" xlink:href="#aF"/><use transform="matrix(0.09259259259259256,0,0,0.09259259259259256,99.72222222222221,0)" xlink:href="#aH"/></g><path fill="#3a414a" d="M143 4C61 4 22-44 18-125c-5-107 100-154 193-111 17 8 29 25 37 43l-32 9c-13-25-37-40-76-40-61 0-88 39-88 99 0 61 29 100 91 101 35 0 62-11 79-27v-45h-74v-28h105v86C228-13 192 4 143 4" id="aI"/><g id="o"><use transform="matrix(0.09259259259259256,0,0,0.09259259259259256,0,0)" xlink:href="#aI"/><use transform="matrix(0.09259259259259256,0,0,0.09259259259259256,25.925925925925917,0)" xlink:href="#ai"/><use transform="matrix(0.09259259259259256,0,0,0.09259259259259256,44.44444444444443,0)" xlink:href="#aq"/><use transform="matrix(0.09259259259259256,0,0,0.09259259259259256,62.96296296296294,0)" xlink:href="#ai"/><use transform="matrix(0.09259259259259256,0,0,0.09259259259259256,81.48148148148145,0)" xlink:href="#am"/><use transform="matrix(0.09259259259259256,0,0,0.09259259259259256,92.49999999999997,0)" xlink:href="#ap"/><use transform="matrix(0.09259259259259256,0,0,0.09259259259259256,111.01851851851848,0)" xlink:href="#an"/><use transform="matrix(0.09259259259259256,0,0,0.09259259259259256,120.27777777777773,0)" xlink:href="#ai"/></g><g id="p"><use transform="matrix(0.09259259259259256,0,0,0.09259259259259256,0,0)" xlink:href="#as"/><use transform="matrix(0.09259259259259256,0,0,0.09259259259259256,18.518518518518512,0)" xlink:href="#ap"/><use transform="matrix(0.09259259259259256,0,0,0.09259259259259256,37.037037037037024,0)" xlink:href="#an"/><use transform="matrix(0.09259259259259256,0,0,0.09259259259259256,46.296296296296276,0)" xlink:href="#ag"/><use transform="matrix(0.09259259259259256,0,0,0.09259259259259256,53.61111111111108,0)" xlink:href="#ai"/><use transform="matrix(0.09259259259259256,0,0,0.09259259259259256,72.12962962962959,0)" xlink:href="#aq"/><use transform="matrix(0.09259259259259256,0,0,0.09259259259259256,90.6481481481481,0)" xlink:href="#an"/></g><g id="q"><use transform="matrix(0.09259259259259256,0,0,0.09259259259259256,0,0)" xlink:href="#am"/><use transform="matrix(0.09259259259259256,0,0,0.09259259259259256,11.018518518518515,0)" xlink:href="#ai"/><use transform="matrix(0.09259259259259256,0,0,0.09259259259259256,29.537037037037027,0)" xlink:href="#af"/><use transform="matrix(0.09259259259259256,0,0,0.09259259259259256,38.79629629629628,0)" xlink:href="#ai"/><use transform="matrix(0.09259259259259256,0,0,0.09259259259259256,57.314814814814795,0)" xlink:href="#am"/><use transform="matrix(0.09259259259259256,0,0,0.09259259259259256,68.33333333333331,0)" xlink:href="#ai"/><use transform="matrix(0.09259259259259256,0,0,0.09259259259259256,86.85185185185182,0)" xlink:href="#aq"/><use transform="matrix(0.09259259259259256,0,0,0.09259259259259256,105.37037037037034,0)" xlink:href="#ay"/><use transform="matrix(0.09259259259259256,0,0,0.09259259259259256,122.03703703703697,0)" xlink:href="#ai"/><use transform="matrix(0.09259259259259256,0,0,0.09259259259259256,140.5555555555555,0)" xlink:href="#aj"/></g><path fill="#3a414a" d="M190 0L58-211 59 0H30v-248h39L202-35l-2-213h31V0h-41" id="aJ"/><g id="r"><use transform="matrix(0.09259259259259256,0,0,0.09259259259259256,0,0)" xlink:href="#aJ"/><use transform="matrix(0.09259259259259256,0,0,0.09259259259259256,23.981481481481474,0)" xlink:href="#at"/><use transform="matrix(0.09259259259259256,0,0,0.09259259259259256,42.499999999999986,0)" xlink:href="#aA"/><use transform="matrix(0.09259259259259256,0,0,0.09259259259259256,59.16666666666664,0)" xlink:href="#at"/><use transform="matrix(0.09259259259259256,0,0,0.09259259259259256,77.68518518518516,0)" xlink:href="#ap"/><use transform="matrix(0.09259259259259256,0,0,0.09259259259259256,96.20370370370367,0)" xlink:href="#ah"/><use transform="matrix(0.09259259259259256,0,0,0.09259259259259256,103.51851851851848,0)" xlink:href="#ag"/><use transform="matrix(0.09259259259259256,0,0,0.09259259259259256,110.8333333333333,0)" xlink:href="#av"/><use transform="matrix(0.09259259259259256,0,0,0.09259259259259256,129.3518518518518,0)" xlink:href="#aq"/></g><path fill="#3a414a" d="M233-177c-1 41-23 64-60 70L243 0h-38l-65-103H63V0H30v-248c88 3 205-21 203 71zM63-129c60-2 137 13 137-47 0-61-80-42-137-45v92" id="aK"/><g id="s"><use transform="matrix(0.09259259259259256,0,0,0.09259259259259256,0,0)" xlink:href="#aC"/><use transform="matrix(0.09259259259259256,0,0,0.09259259259259256,22.222222222222214,0)" xlink:href="#aD"/><use transform="matrix(0.09259259259259256,0,0,0.09259259259259256,39.999999999999986,0)" xlink:href="#ad"/><use transform="matrix(0.09259259259259256,0,0,0.09259259259259256,62.2222222222222,0)" xlink:href="#aK"/></g><g id="t"><use transform="matrix(0.09259259259259256,0,0,0.09259259259259256,0,0)" xlink:href="#aB"/><use transform="matrix(0.09259259259259256,0,0,0.09259259259259256,20.27777777777777,0)" xlink:href="#ag"/><use transform="matrix(0.09259259259259256,0,0,0.09259259259259256,27.59259259259258,0)" xlink:href="#ah"/><use transform="matrix(0.09259259259259256,0,0,0.09259259259259256,34.9074074074074,0)" xlink:href="#an"/><use transform="matrix(0.09259259259259256,0,0,0.09259259259259256,44.16666666666666,0)" xlink:href="#ai"/><use transform="matrix(0.09259259259259256,0,0,0.09259259259259256,62.685185185185176,0)" xlink:href="#am"/></g><g id="u"><use transform="matrix(0.09259259259259256,0,0,0.09259259259259256,0,0)" xlink:href="#aF"/><use transform="matrix(0.09259259259259256,0,0,0.09259259259259256,23.981481481481474,0)" xlink:href="#aw"/><use transform="matrix(0.09259259259259256,0,0,0.09259259259259256,42.499999999999986,0)" xlink:href="#ad"/></g><g id="v"><use transform="matrix(0.09259259259259256,0,0,0.09259259259259256,0,0)" xlink:href="#ac"/><use transform="matrix(0.09259259259259256,0,0,0.09259259259259256,22.222222222222214,0)" xlink:href="#ad"/><use transform="matrix(0.09259259259259256,0,0,0.09259259259259256,44.44444444444443,0)" xlink:href="#ae"/><use transform="matrix(0.09259259259259256,0,0,0.09259259259259256,72.1296296296296,0)" xlink:href="#aj"/></g><g id="w"><use transform="matrix(0.09259259259259256,0,0,0.09259259259259256,0,0)" xlink:href="#az"/><use transform="matrix(0.09259259259259256,0,0,0.09259259259259256,23.981481481481474,0)" xlink:href="#ap"/><use transform="matrix(0.09259259259259256,0,0,0.09259259259259256,42.499999999999986,0)" xlink:href="#ah"/><use transform="matrix(0.09259259259259256,0,0,0.09259259259259256,49.814814814814795,0)" xlink:href="#ah"/></g><path fill="#3a414a" d="M210-169c-67 3-38 105-44 169h-31v-121c0-29-5-50-35-48C34-165 62-65 56 0H25l-1-190h30c1 10-1 24 2 32 10-44 99-50 107 0 11-21 27-35 58-36 85-2 47 119 55 194h-31v-121c0-29-5-49-35-48" id="aL"/><g id="x"><use transform="matrix(0.09259259259259256,0,0,0.09259259259259256,0,0)" xlink:href="#aL"/><use transform="matrix(0.09259259259259256,0,0,0.09259259259259256,27.685185185185176,0)" xlink:href="#al"/><use transform="matrix(0.09259259259259256,0,0,0.09259259259259256,46.20370370370369,0)" xlink:href="#an"/><use transform="matrix(0.09259259259259256,0,0,0.09259259259259256,55.46296296296294,0)" xlink:href="#ap"/><use transform="matrix(0.09259259259259256,0,0,0.09259259259259256,73.98148148148147,0)" xlink:href="#an"/><use transform="matrix(0.09259259259259256,0,0,0.09259259259259256,83.24074074074072,0)" xlink:href="#ag"/><use transform="matrix(0.09259259259259256,0,0,0.09259259259259256,90.55555555555553,0)" xlink:href="#at"/><use transform="matrix(0.09259259259259256,0,0,0.09259259259259256,109.07407407407406,0)" xlink:href="#aq"/><use transform="matrix(0.09259259259259256,0,0,0.09259259259259256,127.59259259259255,0)" xlink:href="#aj"/></g><g id="y"><use transform="matrix(0.09259259259259256,0,0,0.09259259259259256,0,0)" xlink:href="#az"/><use transform="matrix(0.09259259259259256,0,0,0.09259259259259256,23.981481481481474,0)" xlink:href="#ap"/><use transform="matrix(0.09259259259259256,0,0,0.09259259259259256,42.499999999999986,0)" xlink:href="#ah"/><use transform="matrix(0.09259259259259256,0,0,0.09259259259259256,49.814814814814795,0)" xlink:href="#ay"/><use transform="matrix(0.09259259259259256,0,0,0.09259259259259256,66.48148148148145,0)" xlink:href="#al"/><use transform="matrix(0.09259259259259256,0,0,0.09259259259259256,84.99999999999997,0)" xlink:href="#ah"/><use transform="matrix(0.09259259259259256,0,0,0.09259259259259256,92.31481481481478,0)" xlink:href="#ap"/><use transform="matrix(0.09259259259259256,0,0,0.09259259259259256,110.8333333333333,0)" xlink:href="#an"/><use transform="matrix(0.09259259259259256,0,0,0.09259259259259256,120.09259259259252,0)" xlink:href="#ai"/></g><g id="z"><use transform="matrix(0.09259259259259256,0,0,0.09259259259259256,0,0)" xlink:href="#aH"/><use transform="matrix(0.09259259259259256,0,0,0.09259259259259256,23.981481481481474,0)" xlink:href="#aJ"/><use transform="matrix(0.09259259259259256,0,0,0.09259259259259256,47.96296296296295,0)" xlink:href="#ad"/></g><g id="A"><use transform="matrix(0.09259259259259256,0,0,0.09259259259259256,0,0)" xlink:href="#az"/><use transform="matrix(0.09259259259259256,0,0,0.09259259259259256,23.981481481481474,0)" xlink:href="#aJ"/></g><g id="B"><use transform="matrix(0.09259259259259256,0,0,0.09259259259259256,0,0)" xlink:href="#ap"/><use transform="matrix(0.09259259259259256,0,0,0.09259259259259256,18.518518518518512,0)" xlink:href="#aq"/><use transform="matrix(0.09259259259259256,0,0,0.09259259259259256,37.037037037037024,0)" xlink:href="#ar"/></g><path fill="#3a414a" d="M33 0v-248h34V0H33" id="aM"/><g id="C"><use transform="matrix(0.09259259259259256,0,0,0.09259259259259256,0,0)" xlink:href="#ad"/><use transform="matrix(0.09259259259259256,0,0,0.09259259259259256,22.222222222222214,0)" xlink:href="#aM"/><use transform="matrix(0.09259259259259256,0,0,0.09259259259259256,31.48148148148147,0)" xlink:href="#ac"/></g><g id="D"><use transform="matrix(0.09259259259259256,0,0,0.09259259259259256,0,0)" xlink:href="#az"/><use transform="matrix(0.09259259259259256,0,0,0.09259259259259256,23.981481481481474,0)" xlink:href="#ap"/><use transform="matrix(0.09259259259259256,0,0,0.09259259259259256,42.499999999999986,0)" xlink:href="#ah"/><use transform="matrix(0.09259259259259256,0,0,0.09259259259259256,49.814814814814795,0)" xlink:href="#ay"/><use transform="matrix(0.09259259259259256,0,0,0.09259259259259256,66.48148148148145,0)" xlink:href="#al"/><use transform="matrix(0.09259259259259256,0,0,0.09259259259259256,84.99999999999997,0)" xlink:href="#ah"/><use transform="matrix(0.09259259259259256,0,0,0.09259259259259256,92.31481481481478,0)" xlink:href="#ap"/><use transform="matrix(0.09259259259259256,0,0,0.09259259259259256,110.8333333333333,0)" xlink:href="#an"/><use transform="matrix(0.09259259259259256,0,0,0.09259259259259256,120.09259259259252,0)" xlink:href="#ai"/></g><g id="E"><use transform="matrix(0.09259259259259256,0,0,0.09259259259259256,0,0)" xlink:href="#aK"/><use transform="matrix(0.09259259259259256,0,0,0.09259259259259256,23.981481481481474,0)" xlink:href="#aJ"/><use transform="matrix(0.09259259259259256,0,0,0.09259259259259256,47.96296296296295,0)" xlink:href="#ad"/></g><g id="F"><use transform="matrix(0.09259259259259256,0,0,0.09259259259259256,0,0)" xlink:href="#ad"/><use transform="matrix(0.09259259259259256,0,0,0.09259259259259256,22.222222222222214,0)" xlink:href="#aM"/><use transform="matrix(0.09259259259259256,0,0,0.09259259259259256,31.48148148148147,0)" xlink:href="#ac"/></g><g id="G"><use transform="matrix(0.09259259259259256,0,0,0.09259259259259256,0,0)" xlink:href="#ap"/><use transform="matrix(0.09259259259259256,0,0,0.09259259259259256,18.518518518518512,0)" xlink:href="#ah"/><use transform="matrix(0.09259259259259256,0,0,0.09259259259259256,25.833333333333325,0)" xlink:href="#ah"/><use transform="matrix(0.09259259259259256,0,0,0.09259259259259256,33.14814814814814,0)" xlink:href="#ai"/><use transform="matrix(0.09259259259259256,0,0,0.09259259259259256,51.66666666666665,0)" xlink:href="#ah"/><use transform="matrix(0.09259259259259256,0,0,0.09259259259259256,58.98148148148146,0)" xlink:href="#ag"/><use transform="matrix(0.09259259259259256,0,0,0.09259259259259256,66.29629629629628,0)" xlink:href="#ay"/></g><path fill="#3a414a" d="M141 0L90-78 38 0H4l68-98-65-92h35l48 74 47-74h35l-64 92 68 98h-35" id="aN"/><g id="H"><use transform="matrix(0.09259259259259256,0,0,0.09259259259259256,0,0)" xlink:href="#ai"/><use transform="matrix(0.09259259259259256,0,0,0.09259259259259256,18.518518518518512,0)" xlink:href="#aN"/><use transform="matrix(0.09259259259259256,0,0,0.09259259259259256,35.185185185185176,0)" xlink:href="#as"/><use transform="matrix(0.09259259259259256,0,0,0.09259259259259256,53.70370370370368,0)" xlink:href="#am"/><use transform="matrix(0.09259259259259256,0,0,0.09259259259259256,64.7222222222222,0)" xlink:href="#ai"/><use transform="matrix(0.09259259259259256,0,0,0.09259259259259256,83.2407407407407,0)" xlink:href="#aj"/><use transform="matrix(0.09259259259259256,0,0,0.09259259259259256,99.90740740740738,0)" xlink:href="#aj"/><use transform="matrix(0.09259259259259256,0,0,0.09259259259259256,116.574074074074,0)" xlink:href="#ag"/><use transform="matrix(0.09259259259259256,0,0,0.09259259259259256,123.88888888888883,0)" xlink:href="#at"/><use transform="matrix(0.09259259259259256,0,0,0.09259259259259256,142.40740740740733,0)" xlink:href="#aq"/></g><g id="I"><use transform="matrix(0.09259259259259256,0,0,0.09259259259259256,0,0)" xlink:href="#aE"/><use transform="matrix(0.09259259259259256,0,0,0.09259259259259256,25.925925925925917,0)" xlink:href="#al"/><use transform="matrix(0.09259259259259256,0,0,0.09259259259259256,44.44444444444443,0)" xlink:href="#ap"/><use transform="matrix(0.09259259259259256,0,0,0.09259259259259256,62.96296296296294,0)" xlink:href="#aq"/><use transform="matrix(0.09259259259259256,0,0,0.09259259259259256,81.48148148148145,0)" xlink:href="#an"/><use transform="matrix(0.09259259259259256,0,0,0.09259259259259256,90.7407407407407,0)" xlink:href="#ag"/><use transform="matrix(0.09259259259259256,0,0,0.09259259259259256,98.05555555555551,0)" xlink:href="#af"/><use transform="matrix(0.09259259259259256,0,0,0.09259259259259256,107.31481481481478,0)" xlink:href="#ao"/></g><g id="J"><use transform="matrix(0.09259259259259256,0,0,0.09259259259259256,0,0)" xlink:href="#aj"/><use transform="matrix(0.09259259259259256,0,0,0.09259259259259256,16.66666666666666,0)" xlink:href="#as"/><use transform="matrix(0.09259259259259256,0,0,0.09259259259259256,35.185185185185176,0)" xlink:href="#ah"/><use transform="matrix(0.09259259259259256,0,0,0.09259259259259256,42.499999999999986,0)" xlink:href="#ag"/><use transform="matrix(0.09259259259259256,0,0,0.09259259259259256,49.814814814814795,0)" xlink:href="#ay"/><use transform="matrix(0.09259259259259256,0,0,0.09259259259259256,66.48148148148145,0)" xlink:href="#ai"/></g><path fill="#3a414a" d="M24-231v-30h32v30H24zM-9 49c24 4 33-6 33-30v-209h32V24c2 40-23 58-65 49V49" id="aO"/><g id="K"><use transform="matrix(0.09259259259259256,0,0,0.09259259259259256,0,0)" xlink:href="#aO"/><use transform="matrix(0.09259259259259256,0,0,0.09259259259259256,7.314814814814812,0)" xlink:href="#al"/><use transform="matrix(0.09259259259259256,0,0,0.09259259259259256,25.833333333333325,0)" xlink:href="#aq"/><use transform="matrix(0.09259259259259256,0,0,0.09259259259259256,44.35185185185183,0)" xlink:href="#ay"/><use transform="matrix(0.09259259259259256,0,0,0.09259259259259256,61.01851851851848,0)" xlink:href="#an"/><use transform="matrix(0.09259259259259256,0,0,0.09259259259259256,70.27777777777774,0)" xlink:href="#ag"/><use transform="matrix(0.09259259259259256,0,0,0.09259259259259256,77.59259259259255,0)" xlink:href="#at"/><use transform="matrix(0.09259259259259256,0,0,0.09259259259259256,96.11111111111106,0)" xlink:href="#aq"/><use transform="matrix(0.09259259259259256,0,0,0.09259259259259256,114.62962962962956,0)" xlink:href="#aj"/></g><path fill="#3a414a" d="M0 4l72-265h28L28 4H0" id="aP"/><g id="L"><use transform="matrix(0.09259259259259256,0,0,0.09259259259259256,0,0)" xlink:href="#an"/><use transform="matrix(0.09259259259259256,0,0,0.09259259259259256,9.259259259259256,0)" xlink:href="#al"/><use transform="matrix(0.09259259259259256,0,0,0.09259259259259256,27.777777777777768,0)" xlink:href="#aL"/><use transform="matrix(0.09259259259259256,0,0,0.09259259259259256,55.46296296296294,0)" xlink:href="#at"/><use transform="matrix(0.09259259259259256,0,0,0.09259259259259256,73.98148148148147,0)" xlink:href="#al"/><use transform="matrix(0.09259259259259256,0,0,0.09259259259259256,92.49999999999997,0)" xlink:href="#am"/><use transform="matrix(0.09259259259259256,0,0,0.09259259259259256,103.51851851851848,0)" xlink:href="#aP"/><use transform="matrix(0.09259259259259256,0,0,0.09259259259259256,112.77777777777774,0)" xlink:href="#aq"/><use transform="matrix(0.09259259259259256,0,0,0.09259259259259256,131.29629629629625,0)" xlink:href="#at"/><use transform="matrix(0.09259259259259256,0,0,0.09259259259259256,149.81481481481475,0)" xlink:href="#am"/><use transform="matrix(0.09259259259259256,0,0,0.09259259259259256,160.83333333333326,0)" xlink:href="#aL"/><use transform="matrix(0.09259259259259256,0,0,0.09259259259259256,188.51851851851842,0)" xlink:href="#ap"/><use transform="matrix(0.09259259259259256,0,0,0.09259259259259256,207.03703703703692,0)" xlink:href="#ah"/></g><g id="M"><use transform="matrix(0.09259259259259256,0,0,0.09259259259259256,0,0)" xlink:href="#am"/><use transform="matrix(0.09259259259259256,0,0,0.09259259259259256,11.018518518518515,0)" xlink:href="#ai"/><use transform="matrix(0.09259259259259256,0,0,0.09259259259259256,29.537037037037027,0)" xlink:href="#as"/><use transform="matrix(0.09259259259259256,0,0,0.09259259259259256,48.055555555555536,0)" xlink:href="#am"/><use transform="matrix(0.09259259259259256,0,0,0.09259259259259256,59.07407407407406,0)" xlink:href="#ai"/><use transform="matrix(0.09259259259259256,0,0,0.09259259259259256,77.59259259259258,0)" xlink:href="#aj"/><use transform="matrix(0.09259259259259256,0,0,0.09259259259259256,94.25925925925924,0)" xlink:href="#aj"/><use transform="matrix(0.09259259259259256,0,0,0.09259259259259256,110.92592592592588,0)" xlink:href="#ag"/><use transform="matrix(0.09259259259259256,0,0,0.09259259259259256,118.2407407407407,0)" xlink:href="#at"/><use transform="matrix(0.09259259259259256,0,0,0.09259259259259256,136.7592592592592,0)" xlink:href="#aq"/></g><path fill="#3a414a" d="M247 0h-39l-15-214-24 57L95 0H56L31-248h35L82-30l101-218h33l16 218 101-218h35" id="aQ"/><path fill="#3a414a" d="M176 0l-54-107L30 0H-7l115-131-60-117h35l48 97 83-97h37L146-129 211 0h-35" id="aR"/><path fill="#3a414a" d="M194-120c59 52 2 134-86 124-53-6-90-18-98-63l31-7c8 30 29 43 70 43 46 0 84-17 71-62-32-43-135-20-137-98-3-89 178-90 191-16l-30 9c-8-48-127-53-127 5 0 53 81 35 115 65" id="aS"/><g id="N"><use transform="matrix(0.08024691358024688,0,0,0.08024691358024688,0,0)" xlink:href="#aQ"/><use transform="matrix(0.08024691358024688,0,0,0.08024691358024688,27.20370370370369,0)" xlink:href="#aR"/><use transform="matrix(0.08024691358024688,0,0,0.08024691358024688,46.46296296296295,0)" xlink:href="#aS"/></g><path fill="#3a414a" d="M103-194c29 0 47 14 56 36 2-11 5-23 8-32h30L160-5C157 61 82 97 21 62 9 55 4 45 1 30l28-7c7 42 83 31 92-3 4-16 9-38 13-55-13 20-29 36-62 36-40 0-60-25-60-64 0-71 23-131 91-131zm4 24c-53 0-58 54-61 104-2 27 10 44 36 44 49 0 65-50 67-102 1-29-15-46-42-46" id="aT"/><path fill="#3a414a" d="M111-194c62-3 86 47 72 106H45c-7 38 6 69 45 68 27-1 43-14 53-32l24 11C152-15 129 4 87 4 38 3 12-23 12-71c0-70 32-119 99-123zm44 81c14-66-71-72-95-28-4 8-8 17-11 28h106" id="aU"/><path fill="#3a414a" d="M66-151c12-25 30-51 66-40l-6 26C45-176 58-65 38 0H6l36-190h30" id="aV"/><path fill="#3a414a" d="M248-111c6-24 9-61-24-58-72 9-57 108-77 169h-31l26-142c3-37-50-30-64-10C52-115 50-51 37 0H6l36-190h30c-1 10-6 24-4 32 13-43 101-52 105 5 13-22 29-41 61-41 90 0 28 129 23 194h-31" id="aW"/><path fill="#3a414a" d="M6 0l50-261h32L37 0H6" id="aX"/><path fill="#3a414a" d="M50-231l6-30h32l-6 30H50zM6 0l37-190h31L37 0H6" id="aY"/><path fill="#3a414a" d="M67-158c22-48 132-52 116 29L158 0h-32l25-140c3-38-53-32-70-12C52-117 51-52 38 0H6l36-190h30" id="aZ"/><g id="O"><use transform="matrix(0.08024691358024688,0,0,0.08024691358024688,0,0)" xlink:href="#aT"/><use transform="matrix(0.08024691358024688,0,0,0.08024691358024688,16.049382716049376,0)" xlink:href="#aU"/><use transform="matrix(0.08024691358024688,0,0,0.08024691358024688,32.09876543209875,0)" xlink:href="#aV"/><use transform="matrix(0.08024691358024688,0,0,0.08024691358024688,41.64814814814813,0)" xlink:href="#aW"/><use transform="matrix(0.08024691358024688,0,0,0.08024691358024688,65.64197530864195,0)" xlink:href="#aX"/><use transform="matrix(0.08024691358024688,0,0,0.08024691358024688,71.98148148148145,0)" xlink:href="#aY"/><use transform="matrix(0.08024691358024688,0,0,0.08024691358024688,78.32098765432096,0)" xlink:href="#aZ"/><use transform="matrix(0.08024691358024688,0,0,0.08024691358024688,94.37037037037034,0)" xlink:href="#aU"/></g><path fill="#3a414a" d="M55-144c13 50 104 24 104 88C159 21 15 23 1-39l26-10c6 40 102 42 102-4-13-50-104-23-104-87 0-71 143-71 148-8l-29 4c-5-35-85-37-89 0" id="ba"/><path fill="#3a414a" d="M165-48c-4 18 1 34 23 27l-3 20c-29 8-62 0-52-35h-2C116-14 99 4 63 4 30 4 8-16 8-49c0-68 71-67 138-67 10-26 0-56-31-54-26 1-42 9-47 31l-32-5c8-67 160-71 144 15-5 28-9 54-15 81zM42-50c3 52 80 24 89-6 7-12 7-24 11-38-47 1-103-4-100 44" id="bb"/><path fill="#3a414a" d="M67-162c32-53 139-36 121 50C175-51 163 2 97 4 68 4 52-11 42-31 38 6 28 39 22 75H-9l50-265h29c-1 10 0 20-3 28zm89 36c0-26-10-43-35-43-54 0-67 50-69 103-1 29 14 45 42 46 53 0 62-58 62-106" id="bc"/><g id="P"><use transform="matrix(0.08024691358024688,0,0,0.08024691358024688,0,0)" xlink:href="#ba"/><use transform="matrix(0.08024691358024688,0,0,0.08024691358024688,14.44444444444444,0)" xlink:href="#bb"/><use transform="matrix(0.08024691358024688,0,0,0.08024691358024688,30.493827160493815,0)" xlink:href="#aW"/><use transform="matrix(0.08024691358024688,0,0,0.08024691358024688,54.48765432098763,0)" xlink:href="#bc"/><use transform="matrix(0.08024691358024688,0,0,0.08024691358024688,70.53703703703701,0)" xlink:href="#aX"/><use transform="matrix(0.08024691358024688,0,0,0.08024691358024688,76.87654320987652,0)" xlink:href="#aU"/><use transform="matrix(0.08024691358024688,0,0,0.08024691358024688,92.9259259259259,0)" xlink:href="#ba"/></g><path fill="#3a414a" d="M249-183c0 48-29 72-75 77L221 0h-36l-43-103H65L45 0H11l48-248c83 2 190-17 190 65zm-34 3c0-55-74-39-127-41l-18 92c63-1 145 13 145-51" id="bd"/><path fill="#3a414a" d="M173 0L80-213 41 0H11l48-248h37l94 214 40-214h30L212 0h-39" id="be"/><path fill="#3a414a" d="M187 0l-14-72H61L19 0h-37l149-248h38L221 0h-34zm-19-99l-22-123L76-99h92" id="bf"/><g id="Q"><use transform="matrix(0.08024691358024688,0,0,0.08024691358024688,0,0)" xlink:href="#bd"/><use transform="matrix(0.08024691358024688,0,0,0.08024691358024688,20.783950617283942,0)" xlink:href="#be"/><use transform="matrix(0.08024691358024688,0,0,0.08024691358024688,41.567901234567884,0)" xlink:href="#bf"/></g><path fill="#3a414a" d="M133-28C103 26-5 8 13-77c13-62 24-115 90-117 29-1 46 15 56 35l19-102h32L160 0h-30zM45-64c-2 27 10 43 35 43 54-1 69-50 69-103 0-29-15-46-42-46-53-1-58 58-62 106" id="bg"/><g id="R"><use transform="matrix(0.08024691358024688,0,0,0.08024691358024688,0,0)" xlink:href="#bb"/><use transform="matrix(0.08024691358024688,0,0,0.08024691358024688,16.049382716049376,0)" xlink:href="#aZ"/><use transform="matrix(0.08024691358024688,0,0,0.08024691358024688,32.09876543209875,0)" xlink:href="#bg"/></g><g id="S"><use transform="matrix(0.08024691358024688,0,0,0.08024691358024688,0,0)" xlink:href="#aQ"/><use transform="matrix(0.08024691358024688,0,0,0.08024691358024688,27.20370370370369,0)" xlink:href="#aR"/><use transform="matrix(0.08024691358024688,0,0,0.08024691358024688,46.46296296296295,0)" xlink:href="#aS"/></g><g id="T"><use transform="matrix(0.08024691358024688,0,0,0.08024691358024688,0,0)" xlink:href="#bd"/><use transform="matrix(0.08024691358024688,0,0,0.08024691358024688,20.783950617283942,0)" xlink:href="#be"/><use transform="matrix(0.08024691358024688,0,0,0.08024691358024688,41.567901234567884,0)" xlink:href="#bf"/></g><g id="U"><use transform="matrix(0.08024691358024688,0,0,0.08024691358024688,0,0)" xlink:href="#ba"/><use transform="matrix(0.08024691358024688,0,0,0.08024691358024688,14.44444444444444,0)" xlink:href="#bb"/><use transform="matrix(0.08024691358024688,0,0,0.08024691358024688,30.493827160493815,0)" xlink:href="#aW"/><use transform="matrix(0.08024691358024688,0,0,0.08024691358024688,54.48765432098763,0)" xlink:href="#bc"/><use transform="matrix(0.08024691358024688,0,0,0.08024691358024688,70.53703703703701,0)" xlink:href="#aX"/><use transform="matrix(0.08024691358024688,0,0,0.08024691358024688,76.87654320987652,0)" xlink:href="#aU"/><use transform="matrix(0.08024691358024688,0,0,0.08024691358024688,92.9259259259259,0)" xlink:href="#ba"/></g><path fill="#3a414a" d="M151-220L108 0H75l42-220H32l6-28h203l-5 28h-85" id="bh"/><path fill="#3a414a" d="M67 3c-93-2-31-127-26-193h32L48-50c-3 39 53 32 70 12 30-34 30-101 43-152h32L157 0h-30c1-10 6-24 4-33-14 20-29 37-64 36" id="bi"/><path fill="#3a414a" d="M30-147c31-64 166-65 159 27C183-49 158 1 86 4 9 8 1-88 30-147zM88-20c53 0 68-48 68-100 0-31-11-51-44-50-52 1-68 46-68 97 0 32 13 53 44 53" id="bj"/><g id="V"><use transform="matrix(0.08024691358024688,0,0,0.08024691358024688,0,0)" xlink:href="#bh"/><use transform="matrix(0.08024691358024688,0,0,0.08024691358024688,15.4074074074074,0)" xlink:href="#bi"/><use transform="matrix(0.08024691358024688,0,0,0.08024691358024688,31.456790123456777,0)" xlink:href="#aW"/><use transform="matrix(0.08024691358024688,0,0,0.08024691358024688,55.45061728395059,0)" xlink:href="#bj"/><use transform="matrix(0.08024691358024688,0,0,0.08024691358024688,71.49999999999997,0)" xlink:href="#bi"/><use transform="matrix(0.08024691358024688,0,0,0.08024691358024688,87.54938271604935,0)" xlink:href="#aV"/></g><g id="W"><use transform="matrix(0.08024691358024688,0,0,0.08024691358024688,0,0)" xlink:href="#bb"/><use transform="matrix(0.08024691358024688,0,0,0.08024691358024688,16.049382716049376,0)" xlink:href="#aZ"/><use transform="matrix(0.08024691358024688,0,0,0.08024691358024688,32.09876543209875,0)" xlink:href="#bg"/></g><g id="X"><use transform="matrix(0.08024691358024688,0,0,0.08024691358024688,0,0)" xlink:href="#aT"/><use transform="matrix(0.08024691358024688,0,0,0.08024691358024688,16.049382716049376,0)" xlink:href="#aU"/><use transform="matrix(0.08024691358024688,0,0,0.08024691358024688,32.09876543209875,0)" xlink:href="#aV"/><use transform="matrix(0.08024691358024688,0,0,0.08024691358024688,41.64814814814813,0)" xlink:href="#aW"/><use transform="matrix(0.08024691358024688,0,0,0.08024691358024688,65.64197530864195,0)" xlink:href="#aX"/><use transform="matrix(0.08024691358024688,0,0,0.08024691358024688,71.98148148148145,0)" xlink:href="#aY"/><use transform="matrix(0.08024691358024688,0,0,0.08024691358024688,78.32098765432096,0)" xlink:href="#aZ"/><use transform="matrix(0.08024691358024688,0,0,0.08024691358024688,94.37037037037034,0)" xlink:href="#aU"/></g><path fill="#3a414a" d="M51-54c-9 22 5 41 31 30L79-1C43 14 10-4 19-52l22-115H19l5-23h22l19-43h21l-9 43h35l-4 23H73" id="bk"/><path fill="#3a414a" d="M44-68c0 29 11 47 38 47 30 0 42-19 51-41l28 9C148-21 126 4 82 4 31 4 10-29 12-85c3-77 74-140 146-93 12 8 15 23 18 40l-31 5c-1-22-13-36-36-36-52 0-65 49-65 101" id="bl"/><path fill="#3a414a" d="M67-158c15-20 31-36 64-36 94 0 33 127 27 194h-32l25-140c3-38-53-32-70-12C52-117 51-51 37 0H6l51-261h31" id="bm"/><g id="Y"><use transform="matrix(0.08024691358024688,0,0,0.08024691358024688,0,0)" xlink:href="#aW"/><use transform="matrix(0.08024691358024688,0,0,0.08024691358024688,23.99382716049382,0)" xlink:href="#bb"/><use transform="matrix(0.08024691358024688,0,0,0.08024691358024688,40.043209876543195,0)" xlink:href="#bk"/><use transform="matrix(0.08024691358024688,0,0,0.08024691358024688,48.067901234567884,0)" xlink:href="#bl"/><use transform="matrix(0.08024691358024688,0,0,0.08024691358024688,62.51234567901233,0)" xlink:href="#bm"/><use transform="matrix(0.08024691358024688,0,0,0.08024691358024688,78.5617283950617,0)" xlink:href="#aU"/><use transform="matrix(0.08024691358024688,0,0,0.08024691358024688,94.61111111111109,0)" xlink:href="#bg"/></g><g id="Z"><use transform="matrix(0.08024691358024688,0,0,0.08024691358024688,0,0)" xlink:href="#aZ"/><use transform="matrix(0.08024691358024688,0,0,0.08024691358024688,16.049382716049376,0)" xlink:href="#bj"/><use transform="matrix(0.08024691358024688,0,0,0.08024691358024688,32.09876543209875,0)" xlink:href="#aV"/><use transform="matrix(0.08024691358024688,0,0,0.08024691358024688,41.64814814814813,0)" xlink:href="#aW"/><use transform="matrix(0.08024691358024688,0,0,0.08024691358024688,65.64197530864195,0)" xlink:href="#bb"/><use transform="matrix(0.08024691358024688,0,0,0.08024691358024688,81.69135802469133,0)" xlink:href="#aX"/></g><g id="aa"><use transform="matrix(0.08024691358024688,0,0,0.08024691358024688,0,0)" xlink:href="#bd"/><use transform="matrix(0.08024691358024688,0,0,0.08024691358024688,20.783950617283942,0)" xlink:href="#be"/><use transform="matrix(0.08024691358024688,0,0,0.08024691358024688,41.567901234567884,0)" xlink:href="#bf"/></g><g id="ab"><use transform="matrix(0.09259259259259256,0,0,0.09259259259259256,0,0)" xlink:href="#ak"/><use transform="matrix(0.09259259259259256,0,0,0.09259259259259256,22.222222222222214,0)" xlink:href="#al"/><use transform="matrix(0.09259259259259256,0,0,0.09259259259259256,40.740740740740726,0)" xlink:href="#am"/><use transform="matrix(0.09259259259259256,0,0,0.09259259259259256,51.75925925925924,0)" xlink:href="#ag"/><use transform="matrix(0.09259259259259256,0,0,0.09259259259259256,59.07407407407404,0)" xlink:href="#an"/><use transform="matrix(0.09259259259259256,0,0,0.09259259259259256,68.3333333333333,0)" xlink:href="#ao"/></g></defs></g></svg>